<?xml version="1.0" encoding="UTF-8"?>
<svg width="16px" height="16px" viewBox="0 0 16 16" version="1.1" xmlns="http://www.w3.org/2000/svg" xmlns:xlink="http://www.w3.org/1999/xlink">
    <g>
        <path d="M13.303 3.404a.5.5 0 010 .707l-3.89 3.888 3.89 3.89a.5.5 0 010 .707l-.707.707a.5.5 0 01-.707 0L8 9.413l-3.888 3.89a.5.5 0 01-.707 0l-.707-.707a.5.5 0 010-.707L6.585 8 2.697 4.111a.5.5 0 010-.707l.707-.707a.5.5 0 01.707 0l3.888 3.888 3.89-3.888a.5.5 0 01.707 0l.707.707z"></path>
    </g>
</svg>