<?xml version="1.0" encoding="UTF-8"?>
<svg width="16px" height="16px" viewBox="0 0 16 16" version="1.1" xmlns="http://www.w3.org/2000/svg" xmlns:xlink="http://www.w3.org/1999/xlink">
	<title>
		delete
	</title>
	<g>
		<path d="M9.5 3h-3v1h-2V2a1 1 0 011-1h5a1 1 0 011 1v2H14a.5.5 0 01.5.5v1a.5.5 0 01-.5.5h-.5v8a1 1 0 01-1 1h-9a1 1 0 01-1-1V6H2a.5.5 0 01-.5-.5v-1A.5.5 0 012 4h7.5V3zm2 3h-7v7h7V6zM7 7.5a.5.5 0 01.5.5v3a.5.5 0 01-.5.5H6a.5.5 0 01-.5-.5V8a.5.5 0 01.5-.5h1zm3 0a.5.5 0 01.5.5v3a.5.5 0 01-.5.5H9a.5.5 0 01-.5-.5V8a.5.5 0 01.5-.5h1z">
		</path>
	</g>
</svg>
