<?xml version="1.0" encoding="UTF-8"?>
<svg width="16px" height="16px" fill="currentColor" viewBox="0 0 16 16" version="1.1" xmlns="http://www.w3.org/2000/svg" xmlns:xlink="http://www.w3.org/1999/xlink">
	<title>
		download
	</title>
	<g>
		<path d="M2.5 11a.5.5 0 01.5.5V13h10v-1.5a.5.5 0 01.5-.5h1a.5.5 0 01.5.5V14a1 1 0 01-1 1H2a1 1 0 01-1-1v-2.5a.5.5 0 01.5-.5h1zm6-10a.5.5 0 01.5.5V8h1a.5.5 0 01.232.057l.068.043a.5.5 0 01.147.623L10.4 8.8l-2 2.667a.5.5 0 01-.74.067l-.06-.067-2-2.667a.5.5 0 01.31-.792L6 8h1V1.5a.5.5 0 01.5-.5h1z">
		</path>
	</g>
</svg>
