<?xml version="1.0" encoding="UTF-8"?>
<svg width="16px" height="16px" viewBox="0 0 16 16" version="1.1" xmlns="http://www.w3.org/2000/svg" xmlns:xlink="http://www.w3.org/1999/xlink">
    <!-- Generator: Sketch 61.2 (89653) - https://sketch.com -->
    <title>download</title>
    <desc>Created with Sketch.</desc>
    <g id="Page-1" stroke="none" stroke-width="1" fill="none" fill-rule="evenodd">
        <g id="Icons备份" transform="translate(-735.000000, -749.000000)" fill="#202D40" fill-rule="nonzero">
            <g id="编组-102" transform="translate(735.000000, 749.000000)">
                <path d="M3.21875,9.78125 C3.2875,9.78125 3.34375,9.8375 3.34375,9.90625 L3.34375,9.90625 L3.34375,12.3125 L12.65625,12.3125 L12.65625,9.90625 C12.65625,9.8375 12.7125,9.78125 12.78125,9.78125 L12.78125,9.78125 L13.71875,9.78125 C13.7875,9.78125 13.84375,9.8375 13.84375,9.90625 L13.84375,9.90625 L13.84375,13 C13.84375,13.2765625 13.6203125,13.5 13.34375,13.5 L13.34375,13.5 L2.65625,13.5 C2.3796875,13.5 2.15625,13.2765625 2.15625,13 L2.15625,13 L2.15625,9.90625 C2.15625,9.8375 2.2125,9.78125 2.28125,9.78125 L2.28125,9.78125 Z M8.4671875,2.5 C8.5359375,2.5 8.5921875,2.55625 8.5921875,2.625 L8.5921875,2.625 L8.5921875,7.9125 L9.75,7.9125 C9.8546875,7.9125 9.9125,8.0328125 9.8484375,8.1140625 L9.8484375,8.1140625 L8.0984375,10.328125 C8.0484375,10.3921875 7.9515625,10.3921875 7.9015625,10.328125 L7.9015625,10.328125 L6.1515625,8.1125 C6.0875,8.03125 6.1453125,7.9109375 6.25,7.9109375 L6.25,7.9109375 L7.4046875,7.9109375 L7.4046875,2.625 C7.4046875,2.55625 7.4609375,2.5 7.5296875,2.5 L7.5296875,2.5 Z" id="形状结合"></path>
            </g>
        </g>
    </g>
</svg>